<?xml version="1.0" encoding="UTF-8" standalone="no"?>
<!DOCTYPE svg PUBLIC "-//W3C//DTD SVG 1.1//EN"
 "http://www.w3.org/Graphics/SVG/1.1/DTD/svg11.dtd">
<!-- Generated by graphviz version 2.43.0 (0)
 -->
<!-- Title: DFA Pages: 1 -->
<svg width="172pt" height="173pt"
 viewBox="0.00 0.00 171.99 172.54" xmlns="http://www.w3.org/2000/svg" xmlns:xlink="http://www.w3.org/1999/xlink">
<g id="graph0" class="graph" transform="scale(1 1) rotate(0) translate(4 168.54)">
<title>DFA</title>
<polygon fill="white" stroke="transparent" points="-4,4 -4,-168.54 167.99,-168.54 167.99,4 -4,4"/>
<!-- 0 -->
<g id="node1" class="node">
<title>0</title>
<ellipse fill="none" stroke="black" cx="127.99" cy="-56.66" rx="32.49" ry="32.49"/>
<ellipse fill="none" stroke="black" cx="127.99" cy="-56.66" rx="36.49" ry="36.49"/>
<text text-anchor="middle" x="127.99" y="-52.96" font-family="Times,serif" font-size="14.00">0 (0)</text>
</g>
<!-- 0&#45;&gt;0 -->
<g id="edge2" class="edge">
<title>0&#45;&gt;0</title>
<path fill="none" stroke="black" d="M117.88,-91.78C118.08,-102.63 121.46,-111.15 127.99,-111.15 132.29,-111.15 135.21,-107.48 136.78,-101.89"/>
<polygon fill="black" stroke="black" points="140.27,-102.15 138.11,-91.78 133.33,-101.23 140.27,-102.15"/>
<text text-anchor="middle" x="127.99" y="-114.95" font-family="Times,serif" font-size="14.00">a</text>
</g>
<!-- __start__ -->
<g id="node2" class="node">
<title>__start__</title>
</g>
<!-- __start__&#45;&gt;0 -->
<g id="edge1" class="edge">
<title>__start__&#45;&gt;0</title>
<path fill="none" stroke="black" d="M54.01,-56.66C62.42,-56.66 72.01,-56.66 81.42,-56.66"/>
<polygon fill="black" stroke="black" points="81.48,-60.16 91.48,-56.66 81.48,-53.16 81.48,-60.16"/>
</g>
</g>
</svg>
