<?xml version="1.0" encoding="UTF-8" standalone="no"?>
<!DOCTYPE svg PUBLIC "-//W3C//DTD SVG 1.1//EN"
 "http://www.w3.org/Graphics/SVG/1.1/DTD/svg11.dtd">
<!-- Generated by graphviz version 2.43.0 (0)
 -->
<!-- Title: DFA Pages: 1 -->
<svg width="253pt" height="253pt"
 viewBox="0.00 0.00 252.99 253.24" xmlns="http://www.w3.org/2000/svg" xmlns:xlink="http://www.w3.org/1999/xlink">
<g id="graph0" class="graph" transform="scale(1 1) rotate(0) translate(4 249.24)">
<title>DFA</title>
<polygon fill="white" stroke="transparent" points="-4,4 -4,-249.24 248.99,-249.24 248.99,4 -4,4"/>
<!-- 2 -->
<g id="node1" class="node">
<title>2</title>
<ellipse fill="none" stroke="black" cx="208.99" cy="-199.68" rx="32.49" ry="32.49"/>
<ellipse fill="none" stroke="black" cx="208.99" cy="-199.68" rx="36.49" ry="36.49"/>
<text text-anchor="middle" x="208.99" y="-195.98" font-family="Times,serif" font-size="14.00">2 (1)</text>
</g>
<!-- 1 -->
<g id="node2" class="node">
<title>1</title>
<ellipse fill="none" stroke="black" cx="208.99" cy="-45.68" rx="32.49" ry="32.49"/>
<ellipse fill="none" stroke="black" cx="208.99" cy="-45.68" rx="36.49" ry="36.49"/>
<text text-anchor="middle" x="208.99" y="-41.98" font-family="Times,serif" font-size="14.00">1 (0)</text>
</g>
<!-- 1&#45;&gt;1 -->
<g id="edge4" class="edge">
<title>1&#45;&gt;1</title>
<path fill="none" stroke="black" d="M198.13,-80.54C198.29,-91.52 201.91,-100.18 208.99,-100.18 213.64,-100.18 216.8,-96.45 218.47,-90.78"/>
<polygon fill="black" stroke="black" points="221.98,-90.92 219.86,-80.54 215.04,-89.97 221.98,-90.92"/>
<text text-anchor="middle" x="208.99" y="-103.98" font-family="Times,serif" font-size="14.00">a</text>
</g>
<!-- __start__ -->
<g id="node3" class="node">
<title>__start__</title>
</g>
<!-- 0 -->
<g id="node4" class="node">
<title>0</title>
<ellipse fill="none" stroke="black" cx="108.99" cy="-122.68" rx="18" ry="18"/>
<text text-anchor="middle" x="108.99" y="-118.98" font-family="Times,serif" font-size="14.00">0</text>
</g>
<!-- __start__&#45;&gt;0 -->
<g id="edge1" class="edge">
<title>__start__&#45;&gt;0</title>
<path fill="none" stroke="black" d="M54.19,-122.68C62.65,-122.68 72.05,-122.68 80.59,-122.68"/>
<polygon fill="black" stroke="black" points="80.82,-126.18 90.82,-122.68 80.82,-119.18 80.82,-126.18"/>
</g>
<!-- 0&#45;&gt;2 -->
<g id="edge2" class="edge">
<title>0&#45;&gt;2</title>
<path fill="none" stroke="black" d="M123.62,-133.39C136,-143.12 154.84,-157.92 171.58,-171.07"/>
<polygon fill="black" stroke="black" points="169.57,-173.94 179.59,-177.36 173.89,-168.43 169.57,-173.94"/>
<text text-anchor="middle" x="149.99" y="-160.48" font-family="Times,serif" font-size="14.00">;</text>
</g>
<!-- 0&#45;&gt;1 -->
<g id="edge3" class="edge">
<title>0&#45;&gt;1</title>
<path fill="none" stroke="black" d="M123.62,-111.97C136,-102.24 154.84,-87.44 171.58,-74.29"/>
<polygon fill="black" stroke="black" points="173.89,-76.93 179.59,-68 169.57,-71.42 173.89,-76.93"/>
<text text-anchor="middle" x="149.99" y="-97.48" font-family="Times,serif" font-size="14.00">a</text>
</g>
</g>
</svg>
